# xmcd
#
# Track frame offsets:
#	150
#	9969
#	24636
#	37939
#	49589
#	64676
#	75385
#	93133
#	102783
#	117091
#	129911
#	148757
#
# Disc length: 2184 seconds
#
# Revision: 1
# Processed by: cddbd v1.5.2PL0 Copyright (c) Steve Scherf et al.
# Submitted via: dBpowerAMP V4.0
#
DISCID=8408860c
DTITLE=Various Artist - 21st ventury hoedown
DYEAR=2011
DGENRE=Country
TTITLE0=Tower Bucket Boys - Blackbird Pickin' At  A Squirrel Water
TTITLE1=Hayseed Dixie - Dueling Banjos
TTITLE2=Chance McCoy - Dance All Night With A Bottle In Your Hand
TTITLE3=Kidnap Alice - Chilly Winds
TTITLE4=Uncle Earl - Drinker Born
TTITLE5=Hayseed Dixie - Ace Of Spades
TTITLE6=Abigail Washburn - Last Train
TTITLE7=The Coal Porters - Final Wild Son
TTITLE8=The Wagon Tales - Crooked Stones
TTITLE9=Extrication Row - The Cedars
TTITLE10=Sail Away Ladies - Chicken Shed Zeppelin
TTITLE11=Foghorn Stringband - Let Me Fail
EXTD=
EXTT0=
EXTT1=
EXTT2=
EXTT3=
EXTT4=
EXTT5=
EXTT6=
EXTT7=
EXTT8=
EXTT9=
EXTT10=
EXTT11=
PLAYORDER=
